<svg width="180" height="180" viewBox="0 0 180 180" fill="none" xmlns="http://www.w3.org/2000/svg">
<path d="M90 0L167.942 45V135L90 180L12.0577 135V45L90 0Z" fill="black"/>
<path d="M89.9151 110.734C84.4886 105.048 81.7754 98.1675 81.7754 90.0927C81.7754 82.0179 84.4886 75.1504 89.9151 69.4902C95.3416 63.8301 102.196 61 110.479 61C118.787 61 125.784 63.8431 131.471 69.5292C137.157 75.2153 140 82.0698 140 90.0927C140 98.1156 137.157 104.983 131.471 110.695C125.784 116.381 118.787 119.224 110.479 119.224C102.196 119.224 95.3416 116.394 89.9151 110.734ZM94.9781 73.7354C90.9537 78.2012 88.9415 83.6536 88.9415 90.0927C88.9415 96.5318 90.9537 101.984 94.9781 106.45C99.0285 110.916 104.195 113.149 110.479 113.149C116.762 113.149 122.059 110.903 126.369 106.411C130.679 101.919 132.834 96.4799 132.834 90.0927C132.834 83.7055 130.679 78.2661 126.369 73.7743C122.059 69.2825 116.762 67.0366 110.479 67.0366C104.195 67.0366 99.0285 69.2695 94.9781 73.7354Z" fill="white"/>
<path d="M48.5681 110.656C42.856 104.918 40 98.0637 40 90.0927C40 82.1217 42.856 75.2802 48.5681 69.5681C54.2802 63.856 61.1217 61 69.0927 61C75.5837 61 81.4905 63.0122 86.8132 67.0366L82.1786 71.6712C78.1282 68.5815 73.7662 67.0366 69.0927 67.0366C63.0431 67.0366 57.8762 69.2955 53.5922 73.8133C49.3081 78.331 47.1661 83.7575 47.1661 90.0927C47.1661 96.4279 49.3081 101.854 53.5922 106.372C57.8762 110.89 63.0431 113.149 69.0927 113.149C73.8701 113.149 78.232 111.63 82.1786 108.592L86.8132 113.227C81.4386 117.225 75.5318 119.224 69.0927 119.224C61.1217 119.224 54.2802 116.368 48.5681 110.656Z" fill="white"/>
</svg>
